<svg width="481" height="481" viewBox="0 0 481 481" fill="none" xmlns="http://www.w3.org/2000/svg">
<path d="M367.824 481H113.176V452.706H367.824V481Z" fill="#D9D9D9"/>
<path d="M113.176 452.706H84.8824V424.412H113.176V452.706Z" fill="#D9D9D9"/>
<path d="M396.118 452.706H367.824V424.412H396.118V452.706Z" fill="#D9D9D9"/>
<path d="M169.765 424.412H113.176V396.118H169.765V424.412Z" fill="#D9D9D9"/>
<path d="M367.824 424.412H311.235V396.118H367.824V424.412Z" fill="#D9D9D9"/>
<path d="M452.706 367.824H311.235V396.118H169.765V367.824H28.2941V339.529H452.706V367.824Z" fill="#D9D9D9"/>
<path d="M28.2941 339.529H0V28.2941H28.2941V339.529Z" fill="#D9D9D9"/>
<path d="M481 339.529H452.706V28.2941H481V339.529Z" fill="#D9D9D9"/>
<path d="M113.176 225.41H198.059V253.704H113.176V226.353H84.8824V183.912V141.471H113.176V225.41Z" fill="#F6417B"/>
<path d="M367.824 253.704H282.941V225.41H367.824V253.704Z" fill="#F6417B"/>
<path d="M254.647 197.116H282.941V225.41H254.647V198.059H226.353V169.765H254.647V197.116Z" fill="#F6417B"/>
<path d="M396.118 225.41H367.824V141.471H396.118V225.41Z" fill="#F6417B"/>
<path d="M226.353 169.765H198.059V141.471H226.353V169.765Z" fill="#F6417B"/>
<path d="M198.059 141.471H113.176V113.176H198.059V141.471Z" fill="#F6417B"/>
<path d="M367.824 141.471H282.941V113.176H367.824V141.471Z" fill="#F6417B"/>
<path d="M452.706 28.2941H28.2941V0H452.706V28.2941Z" fill="#D9D9D9"/>
<path fill-rule="evenodd" clip-rule="evenodd" d="M28.2941 339.529H452.706V28.2941H28.2941V339.529ZM113.176 225.41H198.059V253.704H113.176V226.353H84.8824V183.912V141.471H113.176V113.176H198.059V141.471H226.353V169.765H254.647V197.116H282.941V225.41H367.824V141.471H282.941V113.176H367.824V141.471H396.118V225.41H367.824V253.704H282.941V225.41H254.647V198.059H226.353V169.765H198.059V141.471H113.176V225.41Z" fill="#262626"/>
<path d="M113.176 452.706H367.824V424.412H311.235V396.118H169.765V424.412H113.176V452.706Z" fill="#262626"/>
<g opacity="0.3" filter="url(#filter0_f_387_236)">
<path d="M113.176 225.41H198.059V253.704H113.176V226.353H84.8823V183.912V141.47H113.176V225.41Z" fill="#F6417B"/>
<path d="M367.823 253.704H282.941V225.41H367.823V253.704Z" fill="#F6417B"/>
<path d="M254.647 197.115H282.941V225.41H254.647V198.059H226.353V169.765H254.647V197.115Z" fill="#F6417B"/>
<path d="M396.118 225.41H367.823V141.47H396.118V225.41Z" fill="#F6417B"/>
<path d="M226.353 169.765H198.059V141.47H226.353V169.765Z" fill="#F6417B"/>
<path d="M198.059 141.47H113.176V113.176H198.059V141.47Z" fill="#F6417B"/>
<path d="M367.823 141.47H282.941V113.176H367.823V141.47Z" fill="#F6417B"/>
</g>
<defs>
<filter id="filter0_f_387_236" x="54.8823" y="83.1763" width="371.235" height="200.527" filterUnits="userSpaceOnUse" color-interpolation-filters="sRGB">
<feFlood flood-opacity="0" result="BackgroundImageFix"/>
<feBlend mode="normal" in="SourceGraphic" in2="BackgroundImageFix" result="shape"/>
<feGaussianBlur stdDeviation="15" result="effect1_foregroundBlur_387_236"/>
</filter>
</defs>
</svg>
